<svg width="64" height="64" viewBox="0 0 64 64" fill="none" xmlns="http://www.w3.org/2000/svg">
<mask id="mask0_138_17" style="mask-type:alpha" maskUnits="userSpaceOnUse" x="0" y="0" width="64" height="64">
<rect width="64" height="64" fill="#D9D9D9"/>
</mask>
<g mask="url(#mask0_138_17)">
<path d="M20.9333 56.3335C16.311 54.2002 12.5555 50.9779 9.66658 46.6668C6.7777 42.3557 5.33325 37.4891 5.33325 32.0668C5.33325 30.9113 5.38881 29.7779 5.49992 28.6668C5.61103 27.5557 5.79992 26.4668 6.06659 25.4002L2.99992 27.2002L0.333252 22.6002L13.0666 15.2668L20.3999 27.9335L15.7333 30.6002L12.1333 24.3335C11.6444 25.5335 11.2777 26.7779 11.0333 28.0668C10.7888 29.3557 10.6666 30.6891 10.6666 32.0668C10.6666 36.3779 11.8444 40.3002 14.1999 43.8335C16.5555 47.3668 19.6888 49.9779 23.5999 51.6668L20.9333 56.3335ZM41.3332 24.0002V18.6668H48.5999C46.5555 16.1335 44.0888 14.1668 41.1999 12.7668C38.311 11.3668 35.2444 10.6668 31.9999 10.6668C29.5555 10.6668 27.2444 11.0446 25.0666 11.8002C22.8888 12.5557 20.8888 13.6224 19.0666 15.0002L16.3999 10.3335C18.6221 8.77794 21.0444 7.55572 23.6666 6.66683C26.2888 5.77794 29.0666 5.3335 31.9999 5.3335C35.511 5.3335 38.8666 5.98905 42.0666 7.30016C45.2666 8.61127 48.1332 10.5113 50.6666 13.0002V9.3335H55.9999V24.0002H41.3332ZM39.5999 64.0002L26.8666 56.6668L34.1999 44.0002L38.7999 46.6668L34.9999 53.2002C40.2444 52.4446 44.611 50.0668 48.0999 46.0668C51.5888 42.0668 53.3332 37.3779 53.3332 32.0002C53.3332 31.5113 53.3221 31.0557 53.2999 30.6335C53.2777 30.2113 53.2221 29.7779 53.1333 29.3335H58.5332C58.5777 29.7779 58.611 30.2113 58.6333 30.6335C58.6555 31.0557 58.6666 31.5113 58.6666 32.0002C58.6666 38.0002 56.8777 43.3668 53.2999 48.1002C49.7221 52.8335 45.0666 56.0224 39.3332 57.6668L42.2666 59.4002L39.5999 64.0002Z" fill="#F9ED96"/>
</g>
</svg>
